<svg xmlns="http://www.w3.org/2000/svg" width="22" height="22" viewBox="0 0 22 22" fill="none">
  <path fill-rule="evenodd" clip-rule="evenodd" d="M6.90243 2.16807C8.3356 1.24419 9.92414 0.970286 11.0241 1.00249C12.124 0.970286 13.7125 1.24419 15.1457 2.16807C16.6701 3.15075 17.9865 4.85025 18.3538 7.59214L18.3592 7.63281V7.67387V14.8406L19.8947 17.4351L20.4358 18.3494H19.3906H14.5032C14.2152 19.8744 12.8535 21 11.2597 21C9.66601 21 8.30432 19.8744 8.01631 18.3494H2.65749H1.6123L2.1534 17.4351L3.68892 14.8406V7.67387V7.63281L3.69437 7.59214C4.06161 4.85025 5.37805 3.15075 6.90243 2.16807ZM9.2327 18.3494C9.49663 19.1746 10.2887 19.7952 11.2597 19.7952C12.2308 19.7952 13.0229 19.1746 13.2868 18.3494H11.1419H10.9062H9.2327ZM8.54945 17.1446H3.70268L4.78221 15.3205L4.86731 15.1767V15.0087V7.71558C5.19351 5.35733 6.30242 3.97917 7.53092 3.18723C8.65884 2.46012 9.91397 2.21208 10.8102 2.20493C10.8519 2.21193 10.8951 2.21442 10.939 2.21192C10.9669 2.21033 10.9952 2.20899 11.0241 2.20793C11.0529 2.20899 11.0813 2.21033 11.1091 2.21192C11.1531 2.21442 11.1962 2.21193 11.2379 2.20493C12.1342 2.21208 13.3893 2.46012 14.5172 3.18723C15.7457 3.97917 16.8546 5.35733 17.1808 7.71558V15.0087V15.1767L17.2659 15.3205L18.3455 17.1446H13.97H11.1419H10.9062H8.54945Z" fill="black" stroke="black" stroke-width="0.833333" stroke-linecap="round"/>
</svg>