<!-- <svg xmlns="http://www.w3.org/2000/svg" width="22" height="22" viewBox="0 0 22 22" fill="none">
  <path fill-rule="evenodd" clip-rule="evenodd" d="M6.90243 2.16807C8.3356 1.24419 9.92414 0.970286 11.0241 1.00249C12.124 0.970286 13.7125 1.24419 15.1457 2.16807C16.6701 3.15075 17.9865 4.85025 18.3538 7.59214L18.3592 7.63281V7.67387V14.8406L19.8947 17.4351L20.4358 18.3494H19.3906H14.5032C14.2152 19.8744 12.8535 21 11.2597 21C9.66601 21 8.30432 19.8744 8.01631 18.3494H2.65749H1.6123L2.1534 17.4351L3.68892 14.8406V7.67387V7.63281L3.69437 7.59214C4.06161 4.85025 5.37805 3.15075 6.90243 2.16807ZM9.2327 18.3494C9.49663 19.1746 10.2887 19.7952 11.2597 19.7952C12.2308 19.7952 13.0229 19.1746 13.2868 18.3494H11.1419H10.9062H9.2327ZM8.54945 17.1446H3.70268L4.78221 15.3205L4.86731 15.1767V15.0087V7.71558C5.19351 5.35733 6.30242 3.97917 7.53092 3.18723C8.65884 2.46012 9.91397 2.21208 10.8102 2.20493C10.8519 2.21193 10.8951 2.21442 10.939 2.21192C10.9669 2.21033 10.9952 2.20899 11.0241 2.20793C11.0529 2.20899 11.0813 2.21033 11.1091 2.21192C11.1531 2.21442 11.1962 2.21193 11.2379 2.20493C12.1342 2.21208 13.3893 2.46012 14.5172 3.18723C15.7457 3.97917 16.8546 5.35733 17.1808 7.71558V15.0087V15.1767L17.2659 15.3205L18.3455 17.1446H13.97H11.1419H10.9062H8.54945Z" fill="black" stroke="black" stroke-width="0.833333" stroke-linecap="round"/>
</svg> -->

<svg xmlns="http://www.w3.org/2000/svg" width="19" height="21" viewBox="0 0 19 21" fill="none">
  <path fill-rule="evenodd" clip-rule="evenodd" d="M5.29013 1.66807C6.7233 0.744191 8.31184 0.470286 9.41177 0.502494C10.5117 0.470286 12.1002 0.744191 13.5334 1.66807C15.0578 2.65075 16.3742 4.35025 16.7415 7.09214L16.7469 7.13281V7.17387V14.3406L18.2824 16.9351L18.2912 16.9499C18.5263 17.3472 18.24 17.8494 17.7783 17.8494H12.8909C12.6029 19.3744 11.2412 20.5 9.64744 20.5C8.05371 20.5 6.69202 19.3744 6.40401 17.8494H1.04519C0.583569 17.8494 0.29722 17.3472 0.532331 16.9499L0.541097 16.9351L2.07661 14.3406V7.17387V7.13281L2.08206 7.09214C2.44931 4.35025 3.76575 2.65075 5.29013 1.66807ZM7.62039 17.8494C7.88432 18.6746 8.67638 19.2952 9.64744 19.2952C10.6185 19.2952 11.4106 18.6746 11.6745 17.8494H9.5296H9.29393H7.62039ZM6.93715 16.6446H2.44115C2.28622 16.6446 2.19013 16.476 2.26903 16.3427L3.1699 14.8205L3.255 14.6767V14.5087V7.21558C3.5812 4.85733 4.69011 3.47917 5.91861 2.68723C7.04654 1.96012 8.30166 1.71208 9.19791 1.70493C9.23964 1.71193 9.28275 1.71442 9.32672 1.71192C9.35458 1.71033 9.38293 1.70899 9.41177 1.70793C9.4406 1.70899 9.46896 1.71033 9.49681 1.71192C9.54078 1.71442 9.5839 1.71193 9.62562 1.70493C10.5219 1.71208 11.777 1.96012 12.9049 2.68723C14.1334 3.47917 15.2423 4.85733 15.5685 7.21558V14.5087V14.6767L15.6536 14.8205L16.5545 16.3427C16.6334 16.476 16.5373 16.6446 16.3824 16.6446H12.3577H9.5296H9.29393H6.93715Z" fill="#323232"/>
</svg>