<svg width="9" height="9" viewBox="0 0 9 9" fill="none" xmlns="http://www.w3.org/2000/svg">
<path fill-rule="evenodd" clip-rule="evenodd" d="M7.93545 1.52181C8.15369 1.30358 8.15369 0.94975 7.93545 0.731516C7.71722 0.513282 7.36339 0.513282 7.14516 0.731516L4.04941 3.82726L0.953971 0.731815C0.735737 0.513581 0.38191 0.513581 0.163676 0.731815C-0.0545586 0.950049 -0.0545584 1.30388 0.163676 1.52211L3.25912 4.61755L0.523771 7.3529C0.305537 7.57114 0.305536 7.92496 0.523771 8.1432C0.742005 8.36143 1.09583 8.36143 1.31407 8.1432L4.04941 5.40785L6.78506 8.1435C7.0033 8.36173 7.35712 8.36173 7.57536 8.1435C7.79359 7.92526 7.79359 7.57143 7.57536 7.3532L4.83971 4.61755L7.93545 1.52181Z" fill="#AAAAAA"/>
</svg>
