<svg width="20" height="20" viewBox="0 0 20 20" fill="none" xmlns="http://www.w3.org/2000/svg">
<g clip-path="url(#clip0_1483_5382)">
<path d="M5.60912 9.09082H3.44085C3.04636 9.09082 2.72656 9.41062 2.72656 9.80511V16.7341C2.72656 17.1286 3.04636 17.4484 3.44085 17.4484H13.8305C14.2249 17.4484 14.5447 17.1286 14.5447 16.7341V11.4766C14.5447 11.0821 14.2249 10.7623 13.8305 10.7623H7.03769C6.6432 10.7623 6.3234 10.4425 6.3234 10.048V9.80511C6.3234 9.41062 6.0036 9.09082 5.60912 9.09082Z" stroke="#A0A0A0" stroke-width="0.909091"/>
<path fill-rule="evenodd" clip-rule="evenodd" d="M6.04287 5.60744C5.7956 5.83823 5.7956 6.21798 6.04287 6.44877L8.81381 9.03505C9.0539 9.25915 9.43831 9.25915 9.6784 9.03505L12.4493 6.44877C12.6966 6.21797 12.6966 5.83823 12.4493 5.60744C12.2092 5.38335 11.8248 5.38335 11.5847 5.60744L9.86385 7.21365L9.86385 0.588078C9.86385 0.251289 9.57523 -0.000657085 9.2461 -0.000657071C8.91698 -0.000657057 8.62835 0.251289 8.62835 0.588078L8.62835 7.21365L6.90747 5.60744C6.66737 5.38335 6.28297 5.38335 6.04287 5.60744Z" fill="#A0A0A0"/>
<path fill-rule="evenodd" clip-rule="evenodd" d="M3.182 15.6758L2.4568 16.7103C2.12499 17.1837 2.46362 17.8346 3.0417 17.8346H14.1724C14.4054 17.8346 14.6236 17.7211 14.7573 17.5303L17.494 13.6262C17.8258 13.1529 17.4871 12.502 16.9091 12.502H14.0911V13.411H16.5346L14.0911 16.897V16.9253H14.0712L14.0711 16.9255H3.41615L3.41629 16.9253H3.182V15.6758Z" fill="#A0A0A0"/>
</g>
<defs>
<clipPath id="clip0_1483_5382">
<rect width="20" height="20" fill="white"/>
</clipPath>
</defs>
</svg>
