<svg width="16" height="13" viewBox="0 0 16 13" fill="none" xmlns="http://www.w3.org/2000/svg">
<path d="M10.8705 6.09612C10.9514 5.6327 11.5374 5.4757 11.8391 5.83659L12.0659 6.10784C12.2502 6.32827 12.5727 6.37073 12.8078 6.20551L13.0971 6.00221C13.482 5.73172 14.0073 6.03502 13.9655 6.50358L13.9341 6.85576C13.9085 7.14197 14.1065 7.40001 14.3896 7.44942L14.7379 7.51022C15.2013 7.59111 15.3583 8.17703 14.9975 8.47879L14.7262 8.70561C14.5058 8.88993 14.4633 9.2124 14.6285 9.44749L14.8318 9.73678C15.1023 10.1217 14.799 10.647 14.3305 10.6052L13.9783 10.5738C13.6921 10.5482 13.434 10.7462 13.3846 11.0293L13.3238 11.3776C13.2429 11.841 12.657 11.998 12.3552 11.6371L12.1284 11.3659C11.9441 11.1454 11.6216 11.103 11.3866 11.2682L11.0973 11.4715C10.7124 11.742 10.1871 11.4387 10.2289 10.9701L10.2603 10.618C10.2858 10.3318 10.0878 10.0737 9.80476 10.0243L9.45644 9.9635C8.99303 9.88261 8.83603 9.29669 9.19691 8.99492L9.46816 8.76811C9.6886 8.58379 9.73105 8.26132 9.56584 8.02623L9.36253 7.73694C9.09204 7.35206 9.39534 6.82673 9.8639 6.86854L10.2161 6.89996C10.5023 6.9255 10.7603 6.7275 10.8097 6.44444L10.8705 6.09612Z" fill="#0453F4"/>
<path fill-rule="evenodd" clip-rule="evenodd" d="M4.83292 1.25315C4.5024 2.28506 3.32428 2.77305 2.36089 2.2771C2.10258 2.14411 1.82575 2.42094 1.95874 2.67925C2.45469 3.64264 1.9667 4.82076 0.934788 5.15128C0.658101 5.23991 0.658101 5.6314 0.934788 5.72002C1.9667 6.05054 2.45469 7.22867 1.95874 8.19205C1.82575 8.45036 2.10258 8.72719 2.36089 8.59421C3.32428 8.09825 4.5024 8.58625 4.83292 9.61815C4.92155 9.89484 5.31304 9.89484 5.40166 9.61815C5.73218 8.58625 6.91031 8.09825 7.87369 8.59421C8.132 8.72719 8.40883 8.45036 8.27585 8.19205C7.77989 7.22867 8.26789 6.05054 9.29979 5.72002C9.57648 5.6314 9.57648 5.23991 9.29979 5.15128C8.26789 4.82076 7.77989 3.64264 8.27585 2.67925C8.40883 2.42094 8.132 2.14411 7.87369 2.2771C6.91031 2.77305 5.73218 2.28506 5.40166 1.25315C5.31304 0.97646 4.92155 0.97646 4.83292 1.25315ZM6.09427 1.0313C5.7898 0.0807114 4.44479 0.0807112 4.14031 1.0313C3.9469 1.63514 3.25751 1.92069 2.69378 1.63048C1.80631 1.1736 0.855245 2.12467 1.31212 3.01214C1.60233 3.57587 1.31678 4.26526 0.712944 4.45867C-0.237648 4.76315 -0.237648 6.10815 0.712944 6.41263C1.31678 6.60604 1.60233 7.29543 1.31212 7.85917C0.855245 8.74663 1.80631 9.6977 2.69378 9.24082C3.25751 8.95061 3.9469 9.23617 4.14031 9.84C4.44479 10.7906 5.7898 10.7906 6.09427 9.84C6.28768 9.23617 6.97707 8.95061 7.54081 9.24082C8.42827 9.6977 9.37934 8.74663 8.92246 7.85917C8.63225 7.29543 8.91781 6.60604 9.52164 6.41263C10.4722 6.10815 10.4722 4.76315 9.52164 4.45867C8.91781 4.26526 8.63225 3.57587 8.92246 3.01214C9.37934 2.12467 8.42827 1.1736 7.54081 1.63048C6.97707 1.92069 6.28768 1.63514 6.09427 1.0313Z" fill="#0453F4"/>
<circle cx="5.05836" cy="5.37672" r="1.78554" stroke="#0453F4" stroke-width="0.727273"/>
<circle cx="12.1223" cy="8.69752" r="1.0735" fill="white"/>
</svg>
