<svg width="393" height="71" viewBox="0 0 393 71" fill="none" xmlns="http://www.w3.org/2000/svg">
<path fill-rule="evenodd" clip-rule="evenodd" d="M28.8203 13.887C30.839 13.2959 32.9748 12.9788 35.1846 12.9788C47.6697 12.9788 57.791 23.1001 57.791 35.5853C57.791 48.0704 47.6697 58.1917 35.1846 58.1917C22.6994 58.1917 12.5781 48.0704 12.5781 35.5853C12.5781 32.2494 13.3007 29.0822 14.5978 26.2318C16.2568 29.094 19.3534 31.0192 22.8998 31.0192C28.1955 31.0192 32.4886 26.7261 32.4886 21.4303C32.4886 18.3689 31.054 15.6426 28.8203 13.887ZM35.1846 0.978821C16.072 0.978821 0.578125 16.4726 0.578125 35.5853C0.578125 54.6979 16.072 70.1917 35.1846 70.1917C54.2972 70.1917 69.791 54.6979 69.791 35.5853C69.791 16.4726 54.2972 0.978821 35.1846 0.978821Z" fill="#0453F4"/>
<path d="M356.667 56.4929C356.319 56.4929 356.029 56.3769 355.797 56.1449C355.565 55.8742 355.449 55.5842 355.449 55.2749C355.449 55.1589 355.468 55.0429 355.507 54.9269C355.546 54.8109 355.584 54.6949 355.623 54.5789L368.441 35.7869L356.493 17.8069C356.377 17.5749 356.319 17.3429 356.319 17.1109C356.319 16.8016 356.435 16.5309 356.667 16.2989C356.899 16.0282 357.189 15.8929 357.537 15.8929H364.671C365.174 15.8929 365.56 16.0282 365.831 16.2989C366.14 16.5695 366.372 16.8209 366.527 17.0529L374.299 28.5949L382.129 17.0529C382.284 16.8209 382.516 16.5695 382.825 16.2989C383.134 16.0282 383.54 15.8929 384.043 15.8929H390.829C391.138 15.8929 391.409 16.0282 391.641 16.2989C391.912 16.5309 392.047 16.8016 392.047 17.1109C392.047 17.3816 391.97 17.6136 391.815 17.8069L379.867 35.7289L392.743 54.5789C392.82 54.6949 392.859 54.8109 392.859 54.9269C392.898 55.0429 392.917 55.1589 392.917 55.2749C392.917 55.5842 392.801 55.8742 392.569 56.1449C392.337 56.3769 392.047 56.4929 391.699 56.4929H384.333C383.83 56.4929 383.424 56.3576 383.115 56.0869C382.844 55.8162 382.632 55.5842 382.477 55.3909L374.009 43.2109L365.599 55.3909C365.483 55.5842 365.27 55.8162 364.961 56.0869C364.69 56.3576 364.284 56.4929 363.743 56.4929H356.667Z" fill="black"/>
<path d="M320.535 56.4982C319.994 56.4982 319.568 56.3629 319.259 56.0922C318.988 55.8215 318.776 55.4735 318.621 55.0482L310.327 28.1942C310.25 28.0009 310.211 27.8075 310.211 27.6142C310.211 27.2662 310.327 26.9762 310.559 26.7442C310.83 26.4735 311.139 26.3382 311.487 26.3382H316.591C317.094 26.3382 317.48 26.4735 317.751 26.7442C318.022 27.0149 318.196 27.2662 318.273 27.4982L323.551 45.4202L329.177 27.6142C329.254 27.3435 329.428 27.0729 329.699 26.8022C330.008 26.4929 330.434 26.3382 330.975 26.3382H334.281C334.822 26.3382 335.228 26.4929 335.499 26.8022C335.808 27.0729 336.002 27.3435 336.079 27.6142L341.705 45.4202L346.983 27.4982C347.022 27.2662 347.176 27.0149 347.447 26.7442C347.756 26.4735 348.143 26.3382 348.607 26.3382H353.711C354.059 26.3382 354.349 26.4735 354.581 26.7442C354.852 26.9762 354.987 27.2662 354.987 27.6142C354.987 27.8075 354.968 28.0009 354.929 28.1942L346.577 55.0482C346.461 55.4735 346.248 55.8215 345.939 56.0922C345.668 56.3629 345.262 56.4982 344.721 56.4982H340.255C339.714 56.4982 339.288 56.3629 338.979 56.0922C338.67 55.8215 338.438 55.4735 338.283 55.0482L332.657 37.8802L326.915 55.0482C326.799 55.4735 326.586 55.8215 326.277 56.0922C325.968 56.3629 325.542 56.4982 325.001 56.4982H320.535Z" fill="black"/>
<path d="M297.717 56.494C297.33 56.494 297.002 56.3587 296.731 56.088C296.46 55.8173 296.325 55.4693 296.325 55.044V27.784C296.325 27.3587 296.46 27.0107 296.731 26.74C297.002 26.4693 297.33 26.334 297.717 26.334H303.517C303.942 26.334 304.29 26.4693 304.561 26.74C304.832 27.0107 304.967 27.3587 304.967 27.784V55.044C304.967 55.4693 304.832 55.8173 304.561 56.088C304.29 56.3587 303.942 56.494 303.517 56.494H297.717ZM297.543 21.694C297.156 21.694 296.828 21.5587 296.557 21.288C296.286 21.0173 296.151 20.6693 296.151 20.244V15.604C296.151 15.1787 296.286 14.8307 296.557 14.56C296.828 14.2507 297.156 14.096 297.543 14.096H303.633C304.058 14.096 304.406 14.2507 304.677 14.56C304.986 14.8307 305.141 15.1787 305.141 15.604V20.244C305.141 20.6693 304.986 21.0173 304.677 21.288C304.406 21.5587 304.058 21.694 303.633 21.694H297.543Z" fill="black"/>
<path d="M275.853 57.0723C271.407 57.0723 267.869 55.8349 265.239 53.3603C262.649 50.8856 261.276 47.2896 261.121 42.5723C261.121 42.2629 261.121 41.8569 261.121 41.3543C261.121 40.8129 261.121 40.3876 261.121 40.0783C261.276 37.1009 261.953 34.5489 263.151 32.4223C264.35 30.2569 266.032 28.6136 268.197 27.4923C270.363 26.3323 272.895 25.7523 275.795 25.7523C279.043 25.7523 281.75 26.4289 283.915 27.7823C286.119 29.0969 287.763 30.9143 288.845 33.2343C289.967 35.5156 290.527 38.1449 290.527 41.1223V42.4563C290.527 42.8429 290.373 43.1716 290.063 43.4423C289.793 43.7129 289.464 43.8483 289.077 43.8483H270.111C270.111 43.8869 270.111 43.9643 270.111 44.0803C270.111 44.1576 270.111 44.2349 270.111 44.3123C270.15 45.5496 270.382 46.6903 270.807 47.7343C271.271 48.7396 271.909 49.5516 272.721 50.1703C273.572 50.7889 274.577 51.0983 275.737 51.0983C276.704 51.0983 277.497 50.9629 278.115 50.6923C278.734 50.4216 279.237 50.0929 279.623 49.7063C280.049 49.3196 280.358 48.9909 280.551 48.7203C280.899 48.3336 281.17 48.1016 281.363 48.0243C281.595 47.9083 281.943 47.8503 282.407 47.8503H288.439C288.826 47.8503 289.135 47.9663 289.367 48.1983C289.638 48.3916 289.754 48.6816 289.715 49.0683C289.677 49.6869 289.348 50.4603 288.729 51.3883C288.149 52.2776 287.279 53.1669 286.119 54.0563C284.959 54.9069 283.509 55.6223 281.769 56.2023C280.068 56.7823 278.096 57.0723 275.853 57.0723ZM270.111 38.5703H281.479V38.4543C281.479 37.0623 281.247 35.8636 280.783 34.8583C280.358 33.8143 279.72 33.0023 278.869 32.4223C278.019 31.8423 276.994 31.5523 275.795 31.5523C274.597 31.5523 273.572 31.8423 272.721 32.4223C271.871 33.0023 271.213 33.8143 270.749 34.8583C270.324 35.8636 270.111 37.0623 270.111 38.4543V38.5703Z" fill="black"/>
<path d="M240.331 56.4982C239.751 56.4982 239.306 56.3629 238.997 56.0922C238.726 55.7829 238.494 55.4349 238.301 55.0482L227.397 28.1362C227.32 27.9815 227.281 27.8075 227.281 27.6142C227.281 27.2662 227.397 26.9762 227.629 26.7442C227.9 26.4735 228.209 26.3382 228.557 26.3382H234.183C234.686 26.3382 235.053 26.4735 235.285 26.7442C235.556 27.0149 235.73 27.2662 235.807 27.4982L242.941 46.6382L250.075 27.4982C250.191 27.2662 250.365 27.0149 250.597 26.7442C250.868 26.4735 251.235 26.3382 251.699 26.3382H257.325C257.673 26.3382 257.963 26.4735 258.195 26.7442C258.466 26.9762 258.601 27.2662 258.601 27.6142C258.601 27.8075 258.582 27.9815 258.543 28.1362L247.581 55.0482C247.426 55.4349 247.194 55.7829 246.885 56.0922C246.576 56.3629 246.131 56.4982 245.551 56.4982H240.331Z" fill="black"/>
<path d="M205.846 56.4982C205.459 56.4982 205.131 56.3629 204.86 56.0922C204.589 55.8215 204.454 55.4735 204.454 55.0482V27.7882C204.454 27.4015 204.589 27.0729 204.86 26.8022C205.131 26.4929 205.459 26.3382 205.846 26.3382H211.53C211.917 26.3382 212.245 26.4929 212.516 26.8022C212.825 27.0729 212.98 27.4015 212.98 27.7882V30.1082C213.947 28.9095 215.126 27.9815 216.518 27.3242C217.949 26.6669 219.592 26.3382 221.448 26.3382H223.942C224.329 26.3382 224.657 26.4735 224.928 26.7442C225.199 27.0149 225.334 27.3629 225.334 27.7882V32.7762C225.334 33.2015 225.199 33.5495 224.928 33.8202C224.657 34.0909 224.329 34.2262 223.942 34.2262H218.838C217.137 34.2262 215.803 34.7095 214.836 35.6762C213.869 36.6042 213.386 37.9382 213.386 39.6782V55.0482C213.386 55.4735 213.251 55.8215 212.98 56.0922C212.709 56.3629 212.361 56.4982 211.936 56.4982H205.846Z" fill="black"/>
<path d="M183.982 57.0723C179.535 57.0723 175.997 55.8349 173.368 53.3603C170.777 50.8856 169.405 47.2896 169.25 42.5723C169.25 42.2629 169.25 41.8569 169.25 41.3543C169.25 40.8129 169.25 40.3876 169.25 40.0783C169.405 37.1009 170.081 34.5489 171.28 32.4223C172.479 30.2569 174.161 28.6136 176.326 27.4923C178.491 26.3323 181.024 25.7523 183.924 25.7523C187.172 25.7523 189.879 26.4289 192.044 27.7823C194.248 29.0969 195.891 30.9143 196.974 33.2343C198.095 35.5156 198.656 38.1449 198.656 41.1223V42.4563C198.656 42.8429 198.501 43.1716 198.192 43.4423C197.921 43.7129 197.593 43.8483 197.206 43.8483H178.24C178.24 43.8869 178.24 43.9643 178.24 44.0803C178.24 44.1576 178.24 44.2349 178.24 44.3123C178.279 45.5496 178.511 46.6903 178.936 47.7343C179.4 48.7396 180.038 49.5516 180.85 50.1703C181.701 50.7889 182.706 51.0983 183.866 51.0983C184.833 51.0983 185.625 50.9629 186.244 50.6923C186.863 50.4216 187.365 50.0929 187.752 49.7063C188.177 49.3196 188.487 48.9909 188.68 48.7203C189.028 48.3336 189.299 48.1016 189.492 48.0243C189.724 47.9083 190.072 47.8503 190.536 47.8503H196.568C196.955 47.8503 197.264 47.9663 197.496 48.1983C197.767 48.3916 197.883 48.6816 197.844 49.0683C197.805 49.6869 197.477 50.4603 196.858 51.3883C196.278 52.2776 195.408 53.1669 194.248 54.0563C193.088 54.9069 191.638 55.6223 189.898 56.2023C188.197 56.7823 186.225 57.0723 183.982 57.0723ZM178.24 38.5703H189.608V38.4543C189.608 37.0623 189.376 35.8636 188.912 34.8583C188.487 33.8143 187.849 33.0023 186.998 32.4223C186.147 31.8423 185.123 31.5523 183.924 31.5523C182.725 31.5523 181.701 31.8423 180.85 32.4223C179.999 33.0023 179.342 33.8143 178.878 34.8583C178.453 35.8636 178.24 37.0623 178.24 38.4543V38.5703Z" fill="black"/>
<path d="M159.028 56.4948C156.631 56.4948 154.581 56.1081 152.88 55.3348C151.179 54.5228 149.883 53.2854 148.994 51.6228C148.143 49.9601 147.718 47.8721 147.718 45.3588V33.1788H143.194C142.769 33.1788 142.421 33.0434 142.15 32.7728C141.879 32.5021 141.744 32.1541 141.744 31.7288V27.7848C141.744 27.3594 141.879 27.0114 142.15 26.7408C142.421 26.4701 142.769 26.3348 143.194 26.3348H147.718V16.7648C147.718 16.3394 147.853 15.9914 148.124 15.7208C148.433 15.4501 148.781 15.3148 149.168 15.3148H154.852C155.277 15.3148 155.625 15.4501 155.896 15.7208C156.167 15.9914 156.302 16.3394 156.302 16.7648V26.3348H163.552C163.939 26.3348 164.267 26.4701 164.538 26.7408C164.809 27.0114 164.944 27.3594 164.944 27.7848V31.7288C164.944 32.1541 164.809 32.5021 164.538 32.7728C164.267 33.0434 163.939 33.1788 163.552 33.1788H156.302V44.6628C156.302 46.1321 156.553 47.2921 157.056 48.1428C157.597 48.9548 158.525 49.3608 159.84 49.3608H164.074C164.461 49.3608 164.789 49.4961 165.06 49.7668C165.331 50.0374 165.466 50.3661 165.466 50.7528V55.0448C165.466 55.4701 165.331 55.8181 165.06 56.0888C164.789 56.3594 164.461 56.4948 164.074 56.4948H159.028Z" fill="black"/>
<path d="M109.557 56.4923C109.17 56.4923 108.841 56.3569 108.571 56.0863C108.3 55.8156 108.165 55.4676 108.165 55.0423V27.7823C108.165 27.3569 108.3 27.0089 108.571 26.7383C108.841 26.4676 109.17 26.3323 109.557 26.3323H115.241C115.666 26.3323 116.014 26.4676 116.285 26.7383C116.555 27.0089 116.691 27.3569 116.691 27.7823V30.0443C117.696 28.8069 118.991 27.7823 120.577 26.9703C122.162 26.1583 124.095 25.7523 126.377 25.7523C128.658 25.7523 130.649 26.2743 132.351 27.3183C134.091 28.3236 135.444 29.8123 136.411 31.7843C137.416 33.7176 137.919 36.0763 137.919 38.8603V55.0423C137.919 55.4676 137.764 55.8156 137.455 56.0863C137.184 56.3569 136.855 56.4923 136.469 56.4923H130.321C129.895 56.4923 129.547 56.3569 129.277 56.0863C129.006 55.8156 128.871 55.4676 128.871 55.0423V39.2083C128.871 37.1589 128.368 35.5736 127.363 34.4523C126.396 33.2923 124.965 32.7123 123.071 32.7123C121.253 32.7123 119.803 33.2923 118.721 34.4523C117.638 35.5736 117.097 37.1589 117.097 39.2083V55.0423C117.097 55.4676 116.961 55.8156 116.691 56.0863C116.42 56.3569 116.091 56.4923 115.705 56.4923H109.557Z" fill="black"/>
<path d="M92.241 56.4929C91.8157 56.4929 91.4677 56.3576 91.197 56.0869C90.9263 55.8162 90.791 55.4682 90.791 55.0429V17.3429C90.791 16.9175 90.9263 16.5695 91.197 16.2989C91.4677 16.0282 91.8157 15.8929 92.241 15.8929H98.795C99.2203 15.8929 99.5684 16.0282 99.839 16.2989C100.11 16.5695 100.245 16.9175 100.245 17.3429V55.0429C100.245 55.4682 100.11 55.8162 99.839 56.0869C99.5684 56.3576 99.2203 56.4929 98.795 56.4929H92.241Z" fill="black"/>
</svg>
