<svg width="42" height="45" viewBox="0 0 42 45" fill="none" xmlns="http://www.w3.org/2000/svg">
<rect width="42" height="44.1" rx="8" fill="#242DFF"/>
<path fill-rule="evenodd" clip-rule="evenodd" d="M18.7149 14.2578C19.4399 14.0455 20.2069 13.9316 21.0005 13.9316C25.4843 13.9316 29.1191 17.5665 29.1191 22.0503C29.1191 26.5341 25.4843 30.169 21.0005 30.169C16.5167 30.169 12.8818 26.5341 12.8818 22.0503C12.8818 20.8523 13.1413 19.7149 13.6072 18.6912C14.2029 19.7191 15.3151 20.4105 16.5886 20.4105C18.4905 20.4105 20.0323 18.8687 20.0323 16.9668C20.0323 15.8674 19.5171 14.8883 18.7149 14.2578ZM21.0005 9.62207C14.1366 9.62207 8.57227 15.1864 8.57227 22.0503C8.57227 28.9142 14.1366 34.4785 21.0005 34.4785C27.8644 34.4785 33.4287 28.9142 33.4287 22.0503C33.4287 15.1864 27.8644 9.62207 21.0005 9.62207Z" fill="white"/>
<path d="M26.1794 25.036C26.1794 26.2041 25.2324 27.1511 24.0643 27.1511C22.8962 27.1511 21.9492 26.2041 21.9492 25.036C21.9492 23.8679 22.8962 22.9209 24.0643 22.9209C25.2324 22.9209 26.1794 23.8679 26.1794 25.036Z" fill="white" fill-opacity="0.2"/>
</svg>
