<svg width="19" height="19" viewBox="0 0 19 19" fill="none" xmlns="http://www.w3.org/2000/svg">
<path d="M18.5149 9.77127C18.5149 12.1582 17.5667 14.4474 15.8789 16.1352C14.191 17.8231 11.9018 18.7713 9.51489 18.7713C7.12794 18.7713 4.83876 17.8231 3.15093 16.1352C1.4631 14.4474 0.514893 12.1582 0.514893 9.77127C0.514893 7.38432 1.4631 5.09514 3.15093 3.40731C4.83876 1.71948 7.12794 0.771271 9.51489 0.771271C11.9018 0.771271 14.191 1.71948 15.8789 3.40731C17.5667 5.09514 18.5149 7.38432 18.5149 9.77127ZM14.0486 6.36252C13.9683 6.28244 13.8726 6.21939 13.7673 6.17714C13.662 6.13489 13.5493 6.1143 13.4359 6.11661C13.3225 6.11892 13.2107 6.14408 13.1072 6.19059C13.0037 6.23709 12.9107 6.30399 12.8336 6.38727L8.92652 11.3654L6.57189 9.00965C6.41195 8.86061 6.20039 8.77947 5.9818 8.78332C5.76322 8.78718 5.55466 8.87573 5.40007 9.03032C5.24548 9.18491 5.15693 9.39347 5.15307 9.61206C5.14921 9.83065 5.23035 10.0422 5.37939 10.2021L8.35614 13.18C8.43633 13.2601 8.53183 13.3231 8.63692 13.3655C8.74202 13.4078 8.85457 13.4286 8.96786 13.4265C9.08114 13.4244 9.19285 13.3995 9.2963 13.3533C9.39976 13.3071 9.49285 13.2405 9.57002 13.1575L14.061 7.54377C14.2141 7.38458 14.2987 7.17171 14.2966 6.95085C14.2945 6.72999 14.2059 6.51876 14.0498 6.36252H14.0486Z" fill="#0453F4"/>
</svg>
