<svg width="124" height="149" viewBox="0 0 124 149" fill="none" xmlns="http://www.w3.org/2000/svg">
<g filter="url(#filter0_d_1749_9687)">
<rect x="21.7461" y="44.5742" width="81.6075" height="82.7103" rx="8.82243" fill="#0453F4" fill-opacity="0.1"/>
<path d="M21.7461 99.8164H66.961H100.597L103.354 102.573V126.284H21.7461V99.8164Z" fill="#0453F4" fill-opacity="0.1"/>
<path fill-rule="evenodd" clip-rule="evenodd" d="M68.3798 87.9423C71.2241 86.1655 73.1162 83.0066 73.1162 79.4058C73.1162 73.8508 68.6131 69.3477 63.0581 69.3477C57.5032 69.3477 53 73.8508 53 79.4058C53 83.0039 54.8893 86.1607 57.73 87.9383V96.7247C57.73 97.9429 58.7175 98.9303 59.9356 98.9303H66.1742C67.3923 98.9303 68.3798 97.9429 68.3798 96.7247V87.9423Z" fill="#0453F4" fill-opacity="0.2"/>
<path d="M21.7461 53.3967C21.7461 48.5242 25.696 44.5742 30.5685 44.5742H41.5966L40.5005 46.1169C39.1746 47.9829 38.4623 50.2153 38.4623 52.5044V118.651C38.4623 121.397 39.3171 124.076 40.9081 126.316L41.5966 127.285H30.5685C25.696 127.285 21.7461 123.335 21.7461 118.462V53.3967Z" fill="#0453F4" fill-opacity="0.12"/>
<path fill-rule="evenodd" clip-rule="evenodd" d="M66.0092 85.2024C68.1166 84.1252 69.5594 81.933 69.5594 79.4037C69.5594 75.8093 66.6455 72.8955 63.0512 72.8955C59.4568 72.8955 56.543 75.8093 56.543 79.4037C56.543 81.9327 57.9855 84.1248 60.0926 85.2021V93.1727C60.0926 94.3909 61.0801 95.3783 62.2982 95.3783H63.8036C65.0217 95.3783 66.0092 94.3909 66.0092 93.1727V85.2024Z" fill="#0453F4" fill-opacity="0.4"/>
<path d="M15.1289 103.022H61.9981H100.596L108.867 110.742V129.49H15.1289V103.022Z" fill="white"/>
<path d="M41.4252 121.907C41.4447 122.435 41.0223 122.873 40.4945 122.873C39.9666 122.873 39.5443 122.435 39.5638 121.907L39.6986 118.253L36.8174 120.153C36.3483 120.462 35.7152 120.306 35.4447 119.813C35.1884 119.347 35.3593 118.761 35.826 118.506L38.9028 116.823L35.8208 115.113C35.3561 114.855 35.1874 114.27 35.4433 113.805C35.7146 113.311 36.3495 113.154 36.8198 113.464L39.6986 115.362L39.5638 111.708C39.5443 111.18 39.9666 110.742 40.4945 110.742C41.0223 110.742 41.4447 111.18 41.4252 111.708L41.2903 115.362L44.1679 113.465C44.6389 113.154 45.2747 113.311 45.5465 113.806C45.8022 114.271 45.6345 114.856 45.171 115.115L42.1146 116.823L45.1657 118.504C45.6313 118.761 45.8011 119.346 45.5451 119.812C45.2741 120.305 44.64 120.462 44.1703 120.152L41.2903 118.253L41.4252 121.907Z" fill="#0453F4"/>
<path d="M55.7612 121.907C55.7806 122.435 55.3583 122.873 54.8304 122.873C54.3026 122.873 53.8802 122.435 53.8997 121.907L54.0346 118.253L51.1533 120.153C50.6843 120.462 50.0512 120.306 49.7806 119.813C49.5244 119.347 49.6952 118.761 50.162 118.506L53.2387 116.823L50.1567 115.113C49.6921 114.855 49.5233 114.27 49.7792 113.805C50.0505 113.311 50.6854 113.154 51.1557 113.464L54.0346 115.362L53.8997 111.708C53.8802 111.18 54.3026 110.742 54.8304 110.742C55.3583 110.742 55.7806 111.18 55.7612 111.708L55.6263 115.362L58.5038 113.465C58.9749 113.154 59.6107 113.311 59.8824 113.806C60.1381 114.271 59.9704 114.856 59.507 115.115L56.4505 116.823L59.5017 118.504C59.9673 118.761 60.137 119.346 59.881 119.812C59.61 120.305 58.976 120.462 58.5063 120.152L55.6263 118.253L55.7612 121.907Z" fill="#0453F4"/>
<path d="M70.0971 121.907C70.1166 122.435 69.6942 122.873 69.1664 122.873C68.6385 122.873 68.2162 122.435 68.2356 121.907L68.3705 118.253L65.4892 120.153C65.0202 120.462 64.3871 120.306 64.1165 119.813C63.8603 119.347 64.0312 118.761 64.4979 118.506L67.5747 116.823L64.4926 115.113C64.028 114.855 63.8592 114.27 64.1151 113.805C64.3865 113.311 65.0213 113.154 65.4917 113.464L68.3705 115.362L68.2356 111.708C68.2162 111.18 68.6385 110.742 69.1664 110.742C69.6942 110.742 70.1166 111.18 70.0971 111.708L69.9622 115.362L72.8398 113.465C73.3108 113.154 73.9466 113.311 74.2183 113.806C74.474 114.271 74.3064 114.856 73.8429 115.115L70.7865 116.823L73.8376 118.504C74.3032 118.761 74.473 119.346 74.2169 119.812C73.946 120.305 73.3119 120.462 72.8422 120.152L69.9622 118.253L70.0971 121.907Z" fill="#0453F4"/>
<path d="M84.433 121.907C84.4525 122.435 84.0301 122.873 83.5023 122.873C82.9745 122.873 82.5521 122.435 82.5716 121.907L82.7065 118.253L79.8252 120.153C79.3562 120.462 78.723 120.306 78.4525 119.813C78.1962 119.347 78.3671 118.761 78.8338 118.506L81.9106 116.823L78.8286 115.113C78.364 114.855 78.1952 114.27 78.4511 113.805C78.7224 113.311 79.3573 113.154 79.8276 113.464L82.7065 115.362L82.5716 111.708C82.5521 111.18 82.9745 110.742 83.5023 110.742C84.0301 110.742 84.4525 111.18 84.433 111.708L84.2981 115.362L87.1757 113.465C87.6467 113.154 88.2826 113.311 88.5543 113.806C88.81 114.271 88.6423 114.856 88.1788 115.115L85.1224 116.823L88.1735 118.504C88.6392 118.761 88.8089 119.346 88.5529 119.812C88.2819 120.305 87.6479 120.462 87.1781 120.152L84.2981 118.253L84.433 121.907Z" fill="#0453F4"/>
<path d="M100.596 110.742H108.867L100.596 103.023V110.742Z" fill="#F0F0F0"/>
<path fill-rule="evenodd" clip-rule="evenodd" d="M48.994 27.0099C46.7132 31.3171 46.0615 37.6094 46.0095 45.6772C46.0071 46.0411 46.006 46.4087 46.006 46.78H37.1836C37.1836 46.4129 37.1845 46.0452 37.1865 45.6772C37.231 37.5675 37.8164 29.2657 41.1972 22.8812C43.0413 19.3988 45.7216 16.4589 49.5015 14.4379C53.2304 12.4442 57.7553 11.4902 63.0995 11.4902C68.4437 11.4902 72.9685 12.4442 76.6974 14.4379C80.4773 16.4589 83.1577 19.3988 85.0017 22.8812C88.536 29.5555 89.0154 38.325 89.0154 46.78H80.1929C80.1929 38.1812 79.5887 31.5115 77.205 27.0099C76.09 24.9044 74.6028 23.3223 72.5377 22.2181C70.4216 21.0867 67.424 20.3127 63.0995 20.3127C58.775 20.3127 55.7774 21.0867 53.6613 22.2181C51.5962 23.3223 50.1089 24.9044 48.994 27.0099Z" fill="#0453F4" fill-opacity="0.4"/>
</g>
<defs>
<filter id="filter0_d_1749_9687" x="0.128906" y="0.490234" width="123.738" height="148" filterUnits="userSpaceOnUse" color-interpolation-filters="sRGB">
<feFlood flood-opacity="0" result="BackgroundImageFix"/>
<feColorMatrix in="SourceAlpha" type="matrix" values="0 0 0 0 0 0 0 0 0 0 0 0 0 0 0 0 0 0 127 0" result="hardAlpha"/>
<feOffset dy="4"/>
<feGaussianBlur stdDeviation="7.5"/>
<feComposite in2="hardAlpha" operator="out"/>
<feColorMatrix type="matrix" values="0 0 0 0 0 0 0 0 0 0 0 0 0 0 0 0 0 0 0.15 0"/>
<feBlend mode="normal" in2="BackgroundImageFix" result="effect1_dropShadow_1749_9687"/>
<feBlend mode="normal" in="SourceGraphic" in2="effect1_dropShadow_1749_9687" result="shape"/>
</filter>
</defs>
</svg>
