<svg width="126" height="138" viewBox="0 0 126 138" fill="none" xmlns="http://www.w3.org/2000/svg">
<g filter="url(#filter0_d_1749_9686)">
<path d="M14.9961 48.4941L62.9961 13.2568L111.003 48.4932L62.9961 85.4902L14.9961 48.4941Z" fill="url(#paint0_linear_1749_9686)"/>
<path d="M98.9961 57.7502L100.996 56.2012V41.1465L78.3006 24.4902H47.6952L44.9961 26.4902L98.9961 57.7502Z" fill="#0453F4" fill-opacity="0.1"/>
<path d="M26.0039 114.494H99.0039V35.4941L87.5039 26.4941H26.0039V114.494Z" fill="white"/>
<path d="M99.0039 35.4941L87.5039 26.4941V35.4941H99.0039Z" fill="#F0F0F0"/>
<path d="M62.0604 65.2033C58.0454 65.2033 55.1144 61.9752 55.1144 56.7942C55.1144 51.6531 58.0855 48.425 62.1005 48.425C64.9913 48.425 66.1958 50.2582 66.6776 51.1749H66.8784V49.3838C66.8784 49.0303 67.1649 48.7438 67.5184 48.7438H69.2898C69.6433 48.7438 69.9298 49.0303 69.9298 49.3838V60.381C69.9699 61.9353 70.6525 62.6925 71.9373 62.6925C74.4266 62.6925 76.0728 59.8231 76.1129 55.6783C76.1531 48.146 70.6525 43.244 62.9838 43.244C55.0341 43.2839 49.8949 49.3815 49.8949 56.7942C49.8949 64.8845 54.3516 70.464 62.8232 70.3843C65.3142 70.3489 67.0482 70.2197 69.1154 69.7191C69.5265 69.6195 69.9298 69.9256 69.9298 70.3486V71.7261C69.9298 72.0159 69.7354 72.2703 69.454 72.3399C67.4841 72.8274 65.2739 73.1341 62.8232 73.1341C53.0266 73.1341 47.0041 66.917 47.0041 56.7942C46.9639 47.3888 53.6289 40.4941 62.9838 40.4941C72.5797 40.4941 79.0439 46.9903 79.0037 55.5588C79.0037 61.736 75.7917 65.3627 71.7366 65.3627C69.2071 65.3627 67.3 63.9479 67.1594 62.0947H66.8784C66.3966 62.9715 65.1921 65.2033 62.0604 65.2033ZM62.5823 62.294C65.433 62.294 66.8784 60.0622 66.9185 56.7544C66.8784 53.5262 65.4731 51.3343 62.5823 51.3343C59.7718 51.3343 58.2461 53.7255 58.2461 56.7544C58.2461 59.8629 59.812 62.294 62.5823 62.294Z" fill="#0453F4"/>
<path d="M63.0039 84.4902H64.37L111.004 118.494H15.0039L61.6378 84.4902H63.0039Z" fill="#0453F4" fill-opacity="0.2"/>
<path d="M63.0039 85.4941L15.0039 118.494L15.0039 48.4941L63.0039 85.4941Z" fill="#0453F4" fill-opacity="0.15"/>
<path d="M63.0039 85.4941L111.004 118.494L111.004 48.4941L63.0039 85.4941Z" fill="#0453F4" fill-opacity="0.15"/>
</g>
<defs>
<filter id="filter0_d_1749_9686" x="-0.00390625" y="-10.5098" width="126.008" height="148.004" filterUnits="userSpaceOnUse" color-interpolation-filters="sRGB">
<feFlood flood-opacity="0" result="BackgroundImageFix"/>
<feColorMatrix in="SourceAlpha" type="matrix" values="0 0 0 0 0 0 0 0 0 0 0 0 0 0 0 0 0 0 127 0" result="hardAlpha"/>
<feOffset dy="4"/>
<feGaussianBlur stdDeviation="7.5"/>
<feComposite in2="hardAlpha" operator="out"/>
<feColorMatrix type="matrix" values="0 0 0 0 0 0 0 0 0 0 0 0 0 0 0 0 0 0 0.15 0"/>
<feBlend mode="normal" in2="BackgroundImageFix" result="effect1_dropShadow_1749_9686"/>
<feBlend mode="normal" in="SourceGraphic" in2="effect1_dropShadow_1749_9686" result="shape"/>
</filter>
<linearGradient id="paint0_linear_1749_9686" x1="62.999" y1="13.9941" x2="63.0011" y2="117.994" gradientUnits="userSpaceOnUse">
<stop offset="0.295" stop-color="#0453F4" stop-opacity="0.2"/>
<stop offset="0.78" stop-color="#0453F4" stop-opacity="0.4"/>
</linearGradient>
</defs>
</svg>
