<svg width="180" height="38" viewBox="0 0 180 38" fill="none" xmlns="http://www.w3.org/2000/svg">
<rect width="35.7054" height="37.4906" rx="6.80102" fill="#242DFF"/>
<path fill-rule="evenodd" clip-rule="evenodd" d="M15.8999 12.1197C16.5162 11.9392 17.1683 11.8424 17.8429 11.8424C21.6547 11.8424 24.7448 14.9325 24.7448 18.7443C24.7448 22.5561 21.6547 25.6462 17.8429 25.6462C14.0311 25.6462 10.941 22.5561 10.941 18.7443C10.941 17.7258 11.1616 16.7589 11.5576 15.8886C12.0641 16.7625 13.0096 17.3502 14.0923 17.3502C15.7091 17.3502 17.0198 16.0395 17.0198 14.4227C17.0198 13.488 16.5818 12.6557 15.8999 12.1197ZM17.8429 8.17871C12.0077 8.17871 7.27734 12.9091 7.27734 18.7443C7.27734 24.5795 12.0077 29.3099 17.8429 29.3099C23.6781 29.3099 28.4085 24.5795 28.4085 18.7443C28.4085 12.9091 23.6781 8.17871 17.8429 8.17871Z" fill="white"/>
<path d="M22.2485 21.2815C22.2485 22.2746 21.4435 23.0796 20.4504 23.0796C19.4574 23.0796 18.6523 22.2746 18.6523 21.2815C18.6523 20.2884 19.4574 19.4834 20.4504 19.4834C21.4435 19.4834 22.2485 20.2884 22.2485 21.2815Z" fill="white" fill-opacity="0.2"/>
<path d="M162.891 29.2376C162.727 29.2376 162.59 29.1794 162.481 29.0631C162.371 28.9273 162.316 28.7818 162.316 28.6267C162.316 28.5685 162.326 28.5103 162.344 28.4521C162.362 28.394 162.38 28.3358 162.399 28.2776L168.449 18.8522L162.809 9.83402C162.754 9.71766 162.727 9.60129 162.727 9.48493C162.727 9.32978 162.782 9.19402 162.891 9.07766C163.001 8.9419 163.138 8.87402 163.302 8.87402H166.669C166.907 8.87402 167.089 8.9419 167.217 9.07766C167.363 9.21342 167.472 9.33948 167.545 9.45584L171.214 15.2449L174.91 9.45584C174.983 9.33948 175.092 9.21342 175.238 9.07766C175.384 8.9419 175.576 8.87402 175.813 8.87402H179.016C179.162 8.87402 179.29 8.9419 179.399 9.07766C179.527 9.19402 179.591 9.32978 179.591 9.48493C179.591 9.62069 179.555 9.73705 179.482 9.83402L173.842 18.8231L179.92 28.2776C179.956 28.3358 179.974 28.394 179.974 28.4521C179.993 28.5103 180.002 28.5685 180.002 28.6267C180.002 28.7818 179.947 28.9273 179.837 29.0631C179.728 29.1794 179.591 29.2376 179.427 29.2376H175.95C175.713 29.2376 175.521 29.1697 175.375 29.034C175.247 28.8982 175.147 28.7818 175.074 28.6849L171.077 22.5758L167.107 28.6849C167.053 28.7818 166.952 28.8982 166.806 29.034C166.678 29.1697 166.487 29.2376 166.231 29.2376H162.891Z" fill="black"/>
<path d="M146.208 29.2386C145.955 29.2386 145.756 29.1707 145.611 29.0349C145.485 28.8992 145.385 28.7246 145.313 28.5113L141.433 15.0422C141.397 14.9453 141.379 14.8483 141.379 14.7513C141.379 14.5768 141.433 14.4313 141.542 14.315C141.668 14.1792 141.813 14.1113 141.976 14.1113H144.363C144.598 14.1113 144.779 14.1792 144.906 14.315C145.032 14.4507 145.114 14.5768 145.15 14.6931L147.619 23.6822L150.25 14.7513C150.287 14.6156 150.368 14.4798 150.495 14.3441C150.639 14.1889 150.838 14.1113 151.092 14.1113H152.638C152.891 14.1113 153.081 14.1889 153.208 14.3441C153.352 14.4798 153.443 14.6156 153.479 14.7513L156.111 23.6822L158.579 14.6931C158.598 14.5768 158.67 14.4507 158.797 14.315C158.941 14.1792 159.122 14.1113 159.339 14.1113H161.727C161.889 14.1113 162.025 14.1792 162.134 14.315C162.26 14.4313 162.323 14.5768 162.323 14.7513C162.323 14.8483 162.314 14.9453 162.296 15.0422L158.39 28.5113C158.335 28.7246 158.236 28.8992 158.091 29.0349C157.965 29.1707 157.775 29.2386 157.521 29.2386H155.432C155.179 29.2386 154.98 29.1707 154.836 29.0349C154.691 28.8992 154.582 28.7246 154.51 28.5113L151.878 19.9004L149.192 28.5113C149.138 28.7246 149.039 28.8992 148.894 29.0349C148.749 29.1707 148.55 29.2386 148.297 29.2386H146.208Z" fill="black"/>
<path d="M133.558 29.5235C131.474 29.5235 129.815 28.9029 128.583 27.6617C127.368 26.4205 126.725 24.6168 126.652 22.2508C126.652 22.0956 126.652 21.892 126.652 21.6399C126.652 21.3684 126.652 21.155 126.652 20.9999C126.725 19.5066 127.042 18.2266 127.604 17.1599C128.166 16.0738 128.954 15.2496 129.969 14.6872C130.984 14.1054 132.172 13.8145 133.531 13.8145C135.054 13.8145 136.323 14.1538 137.338 14.8326C138.371 15.492 139.141 16.4035 139.649 17.5672C140.174 18.7114 140.437 20.0302 140.437 21.5235V22.1926C140.437 22.3865 140.365 22.5514 140.22 22.6872C140.093 22.8229 139.939 22.8908 139.757 22.8908H130.867C130.867 22.9102 130.867 22.949 130.867 23.0072C130.867 23.0459 130.867 23.0847 130.867 23.1235C130.885 23.7441 130.994 24.3162 131.193 24.8399C131.41 25.3441 131.709 25.7514 132.09 26.0617C132.489 26.372 132.96 26.5271 133.504 26.5271C133.957 26.5271 134.329 26.4593 134.619 26.3235C134.909 26.1877 135.144 26.0229 135.326 25.829C135.525 25.635 135.67 25.4702 135.761 25.3344C135.924 25.1405 136.051 25.0241 136.141 24.9853C136.25 24.9271 136.413 24.8981 136.631 24.8981H139.458C139.64 24.8981 139.785 24.9562 139.893 25.0726C140.02 25.1696 140.075 25.315 140.056 25.509C140.038 25.8193 139.884 26.2071 139.594 26.6726C139.322 27.1187 138.915 27.5647 138.371 28.0108C137.827 28.4374 137.147 28.7962 136.332 29.0871C135.534 29.378 134.61 29.5235 133.558 29.5235ZM130.867 20.2435H136.196V20.1853C136.196 19.4872 136.087 18.886 135.869 18.3817C135.67 17.8581 135.371 17.4508 134.972 17.1599C134.573 16.869 134.093 16.7235 133.531 16.7235C132.969 16.7235 132.489 16.869 132.09 17.1599C131.691 17.4508 131.383 17.8581 131.166 18.3817C130.966 18.886 130.867 19.4872 130.867 20.1853V20.2435Z" fill="black"/>
<path d="M120.129 29.2322C119.935 29.2322 119.77 29.1643 119.635 29.0286C119.499 28.8928 119.431 28.7183 119.431 28.5049V14.8322C119.431 14.6189 119.499 14.4444 119.635 14.3086C119.77 14.1728 119.935 14.105 120.129 14.105H123.038C123.252 14.105 123.426 14.1728 123.562 14.3086C123.698 14.4444 123.766 14.6189 123.766 14.8322V28.5049C123.766 28.7183 123.698 28.8928 123.562 29.0286C123.426 29.1643 123.252 29.2322 123.038 29.2322H120.129ZM120.042 11.7777C119.848 11.7777 119.683 11.7098 119.547 11.5741C119.412 11.4383 119.344 11.2638 119.344 11.0504V8.72316C119.344 8.50982 119.412 8.33528 119.547 8.19952C119.683 8.04437 119.848 7.9668 120.042 7.9668H123.096C123.31 7.9668 123.484 8.04437 123.62 8.19952C123.775 8.33528 123.853 8.50982 123.853 8.72316V11.0504C123.853 11.2638 123.775 11.4383 123.62 11.5741C123.484 11.7098 123.31 11.7777 123.096 11.7777H120.042Z" fill="black"/>
<path d="M109.325 29.2386C109.059 29.2386 108.856 29.1707 108.714 29.0349C108.59 28.8798 108.484 28.7052 108.395 28.5113L103.401 15.0131C103.365 14.9356 103.348 14.8483 103.348 14.7513C103.348 14.5768 103.401 14.4313 103.507 14.315C103.631 14.1792 103.773 14.1113 103.932 14.1113H106.509C106.739 14.1113 106.908 14.1792 107.014 14.315C107.138 14.4507 107.217 14.5768 107.253 14.6931L110.521 24.2931L113.788 14.6931C113.841 14.5768 113.921 14.4507 114.027 14.315C114.151 14.1792 114.32 14.1113 114.532 14.1113H117.109C117.268 14.1113 117.401 14.1792 117.508 14.315C117.632 14.4313 117.693 14.5768 117.693 14.7513C117.693 14.8483 117.685 14.9356 117.667 15.0131L112.646 28.5113C112.575 28.7052 112.469 28.8798 112.327 29.0349C112.185 29.1707 111.982 29.2386 111.716 29.2386H109.325Z" fill="black"/>
<path d="M95.6964 29.2386C95.5268 29.2386 95.3827 29.1707 95.264 29.0349C95.1453 28.8992 95.0859 28.7246 95.0859 28.5113V14.8386C95.0859 14.6447 95.1453 14.4798 95.264 14.3441C95.3827 14.1889 95.5268 14.1113 95.6964 14.1113H98.1891C98.3587 14.1113 98.5028 14.1889 98.6215 14.3441C98.7572 14.4798 98.825 14.6447 98.825 14.8386V16.0022C99.249 15.401 99.7662 14.9356 100.377 14.6059C101.004 14.2762 101.725 14.1113 102.539 14.1113H103.632C103.802 14.1113 103.946 14.1792 104.065 14.315C104.184 14.4507 104.243 14.6253 104.243 14.8386V17.3404C104.243 17.5537 104.184 17.7283 104.065 17.864C103.946 17.9998 103.802 18.0677 103.632 18.0677H101.394C100.648 18.0677 100.063 18.3101 99.639 18.795C99.215 19.2604 99.0031 19.9295 99.0031 20.8022V28.5113C99.0031 28.7246 98.9437 28.8992 98.825 29.0349C98.7063 29.1707 98.5537 29.2386 98.3672 29.2386H95.6964Z" fill="black"/>
<path d="M85.5854 29.5235C83.4303 29.5235 81.7155 28.9029 80.4412 27.6617C79.1856 26.4205 78.5203 24.6168 78.4453 22.2508C78.4453 22.0956 78.4453 21.892 78.4453 21.6399C78.4453 21.3684 78.4453 21.155 78.4453 20.9999C78.5203 19.5066 78.8482 18.2266 79.4292 17.1599C80.0101 16.0738 80.8253 15.2496 81.8748 14.6872C82.9243 14.1054 84.1518 13.8145 85.5573 13.8145C87.1315 13.8145 88.4433 14.1538 89.4928 14.8326C90.561 15.492 91.3575 16.4035 91.8822 17.5672C92.4257 18.7114 92.6974 20.0302 92.6974 21.5235V22.1926C92.6974 22.3865 92.6224 22.5514 92.4725 22.6872C92.3413 22.8229 92.182 22.8908 91.9946 22.8908H82.8025C82.8025 22.9102 82.8025 22.949 82.8025 23.0072C82.8025 23.0459 82.8025 23.0847 82.8025 23.1235C82.8212 23.7441 82.9336 24.3162 83.1398 24.8399C83.3647 25.3441 83.6739 25.7514 84.0674 26.0617C84.4797 26.372 84.967 26.5271 85.5292 26.5271C85.9977 26.5271 86.3819 26.4593 86.6817 26.3235C86.9816 26.1877 87.2252 26.0229 87.4126 25.829C87.6187 25.635 87.7687 25.4702 87.8624 25.3344C88.031 25.1405 88.1622 25.0241 88.2559 24.9853C88.3684 24.9271 88.537 24.8981 88.7619 24.8981H91.6854C91.8728 24.8981 92.0227 24.9562 92.1352 25.0726C92.2664 25.1696 92.3226 25.315 92.3039 25.509C92.2851 25.8193 92.1258 26.2071 91.826 26.6726C91.5449 27.1187 91.1232 27.5647 90.561 28.0108C89.9988 28.4374 89.296 28.7962 88.4527 29.0871C87.6281 29.378 86.6724 29.5235 85.5854 29.5235ZM82.8025 20.2435H88.3121V20.1853C88.3121 19.4872 88.1997 18.886 87.9748 18.3817C87.7687 17.8581 87.4595 17.4508 87.0472 17.1599C86.6349 16.869 86.1383 16.7235 85.5573 16.7235C84.9763 16.7235 84.4797 16.869 84.0674 17.1599C83.6551 17.4508 83.3366 17.8581 83.1117 18.3817C82.9055 18.886 82.8025 19.4872 82.8025 20.1853V20.2435Z" fill="black"/>
<path d="M75.7941 29.2365C74.5916 29.2365 73.5638 29.0426 72.7104 28.6547C71.8571 28.2474 71.2074 27.6268 70.7614 26.7929C70.3347 25.959 70.1214 24.9117 70.1214 23.6511V17.542H67.8523C67.6389 17.542 67.4644 17.4741 67.3286 17.3384C67.1929 17.2026 67.125 17.0281 67.125 16.8147V14.8366C67.125 14.6232 67.1929 14.4487 67.3286 14.3129C67.4644 14.1772 67.6389 14.1093 67.8523 14.1093H70.1214V9.3093C70.1214 9.09597 70.1892 8.92142 70.325 8.78567C70.4801 8.64991 70.6547 8.58203 70.8486 8.58203H73.6995C73.9129 8.58203 74.0874 8.64991 74.2232 8.78567C74.3589 8.92142 74.4268 9.09597 74.4268 9.3093V14.1093H78.0632C78.2571 14.1093 78.4219 14.1772 78.5577 14.3129C78.6935 14.4487 78.7613 14.6232 78.7613 14.8366V16.8147C78.7613 17.0281 78.6935 17.2026 78.5577 17.3384C78.4219 17.4741 78.2571 17.542 78.0632 17.542H74.4268V23.302C74.4268 24.039 74.5529 24.6208 74.805 25.0474C75.0765 25.4547 75.5419 25.6583 76.2013 25.6583H78.325C78.5189 25.6583 78.6838 25.7262 78.8195 25.862C78.9553 25.9977 79.0232 26.1626 79.0232 26.3565V28.5092C79.0232 28.7226 78.9553 28.8971 78.8195 29.0329C78.6838 29.1686 78.5189 29.2365 78.325 29.2365H75.7941Z" fill="black"/>
<path d="M53.7527 29.2326C53.5838 29.2326 53.4402 29.1647 53.3219 29.029C53.2037 28.8932 53.1445 28.7187 53.1445 28.5053V14.8326C53.1445 14.6193 53.2037 14.4448 53.3219 14.309C53.4402 14.1732 53.5838 14.1054 53.7527 14.1054H56.2363C56.4222 14.1054 56.5742 14.1732 56.6925 14.309C56.8107 14.4448 56.8699 14.6193 56.8699 14.8326V15.9672C57.3091 15.3466 57.8751 14.8326 58.5678 14.4254C59.2605 14.0181 60.1053 13.8145 61.1021 13.8145C62.0989 13.8145 62.9689 14.0763 63.7123 14.5999C64.4726 15.1041 65.0639 15.8508 65.4863 16.8399C65.9256 17.8096 66.1452 18.9926 66.1452 20.389V28.5053C66.1452 28.7187 66.0776 28.8932 65.9425 29.029C65.8242 29.1647 65.6806 29.2326 65.5116 29.2326H62.8253C62.6395 29.2326 62.4874 29.1647 62.3692 29.029C62.2509 28.8932 62.1918 28.7187 62.1918 28.5053V20.5635C62.1918 19.5356 61.9721 18.7405 61.5329 18.1781C61.1105 17.5963 60.4854 17.3054 59.6575 17.3054C58.8635 17.3054 58.2299 17.5963 57.7569 18.1781C57.2838 18.7405 57.0473 19.5356 57.0473 20.5635V28.5053C57.0473 28.7187 56.9881 28.8932 56.8699 29.029C56.7516 29.1647 56.608 29.2326 56.439 29.2326H53.7527Z" fill="black"/>
<path d="M45.7859 29.2376C45.5725 29.2376 45.398 29.1697 45.2622 29.034C45.1265 28.8982 45.0586 28.7237 45.0586 28.5103V9.6013C45.0586 9.38796 45.1265 9.21342 45.2622 9.07766C45.398 8.9419 45.5725 8.87402 45.7859 8.87402H49.0731C49.2865 8.87402 49.461 8.9419 49.5968 9.07766C49.7325 9.21342 49.8004 9.38796 49.8004 9.6013V28.5103C49.8004 28.7237 49.7325 28.8982 49.5968 29.034C49.461 29.1697 49.2865 29.2376 49.0731 29.2376H45.7859Z" fill="black"/>
</svg>
